<svg xmlns="http://www.w3.org/2000/svg" xmlns:xlink="http://www.w3.org/1999/xlink" width="20"
  height="20" viewBox="0 0 20 20" aria-hidden="true"><!---->
  <g>
    <path
      d="M12.2 17.94c1.26-2 2-4.45 2.14-7.06h3.86a8.26 8.26 0 01-6 7.06M1.8 10.88h3.86c.14 2.6.88 5.06 2.14 7.06a8.26 8.26 0 01-6-7.06m6-8.82c-1.26 2-2 4.45-2.14 7.07H1.8a8.26 8.26 0 016-7.07m4.79 8.82A12.5 12.5 0 0110 18a12.5 12.5 0 01-2.59-7.13zM7.4 9.13A12.5 12.5 0 0110 1.99a12.5 12.5 0 012.59 7.14zm10.8 0h-3.87a14.8 14.8 0 00-2.14-7.07 8.26 8.26 0 016 7.07M10 0a10 10 0 100 20 10 10 0 000-20"></path>
  </g>
</svg>
